<svg xmlns="http://www.w3.org/2000/svg" viewBox="0 0 36 36" width="36" height="36">
  <path fill="#1877F2" d="M36 18C36 8.059 27.941 0 18 0S0 8.059 0 18c0 8.984 6.583 16.43 15.188 17.781V23.203h-4.57V18h4.57v-3.965c0-4.51 2.686-7.002 6.797-7.002 1.969 0 4.03.352 4.03.352v4.43h-2.27c-2.235 0-2.933 1.388-2.933 2.812V18h4.992l-.798 5.203h-4.194V35.78C29.417 34.43 36 26.984 36 18z"/>
  <path fill="#FFFFFF" d="M25.008 23.203 25.806 18h-4.992v-3.373c0-1.424.698-2.812 2.933-2.812h2.27v-4.43s-2.061-.352-4.03-.352c-4.111 0-6.797 2.492-6.797 7.002V18h-4.57v5.203h4.57V35.78a18.137 18.137 0 0 0 5.626 0V23.203h4.194z"/>
</svg>
